<?xml version="1.0" encoding="UTF-8"?> <svg xmlns="http://www.w3.org/2000/svg" width="40" height="40" viewBox="0 0 40 40" fill="none"> <path d="M25.1216 3.33337H14.895C5.55498 3.33337 3.33331 5.55504 3.33331 14.8784V25.105C3.33331 34.4434 5.53831 36.6667 14.8783 36.6667H25.105C34.4433 36.6667 36.6666 34.4617 36.6666 25.1217V14.895C36.6666 5.55504 34.4616 3.33337 25.1216 3.33337ZM30.2433 27.1167H27.8116C26.8916 27.1167 26.615 26.3717 24.965 24.7217C23.525 23.3334 22.9166 23.16 22.5516 23.16C22.0483 23.16 21.91 23.2984 21.91 23.9934V26.18C21.91 26.7717 21.7183 27.1184 20.1733 27.1184C18.6739 27.0176 17.2199 26.5621 15.931 25.7893C14.6421 25.0165 13.5553 23.9485 12.76 22.6734C10.8719 20.3234 9.55822 17.5653 8.92331 14.6184C8.92331 14.2534 9.06165 13.9234 9.75665 13.9234H12.1866C12.8116 13.9234 13.0366 14.2017 13.2816 14.8434C14.4616 18.3167 16.475 21.3367 17.2916 21.3367C17.605 21.3367 17.7416 21.1984 17.7416 20.4167V16.84C17.6383 15.2084 16.7716 15.07 16.7716 14.48C16.7828 14.3244 16.8541 14.1793 16.9705 14.0753C17.0868 13.9714 17.2391 13.9169 17.395 13.9234H21.215C21.7366 13.9234 21.91 14.1834 21.91 14.8084V19.635C21.91 20.1567 22.135 20.33 22.2916 20.33C22.605 20.33 22.8466 20.1567 23.42 19.5834C24.6514 18.0816 25.6575 16.4085 26.4066 14.6167C26.4832 14.4015 26.6281 14.2172 26.8192 14.092C27.0103 13.9668 27.2371 13.9076 27.465 13.9234H29.8966C30.625 13.9234 30.78 14.2884 30.625 14.8084C29.7408 16.7891 28.6468 18.6693 27.3616 20.4167C27.1 20.8167 26.995 21.025 27.3616 21.4934C27.6033 21.8584 28.455 22.57 29.0283 23.2467C29.8615 24.0778 30.5534 25.0393 31.0766 26.0934C31.285 26.77 30.9366 27.1167 30.2433 27.1167Z" fill="white"></path> </svg> 